<?xml version="1.0" encoding="UTF-8" standalone="no"?>
<svg
   version="1.1"
   viewBox="0 0 741.5625324920167 588.8943325830193"
   width="1483.1250649840333"
   height="1177.7886651660385"
   id="svg64"
   sodipodi:docname="why_lift_concept.svg"
   inkscape:version="1.3.2 (091e20ef0f, 2023-11-25)"
   xmlns:inkscape="http://www.inkscape.org/namespaces/inkscape"
   xmlns:sodipodi="http://sodipodi.sourceforge.net/DTD/sodipodi-0.dtd"
   xmlns="http://www.w3.org/2000/svg"
   xmlns:svg="http://www.w3.org/2000/svg">
  <sodipodi:namedview
     id="namedview64"
     pagecolor="#ffffff"
     bordercolor="#000000"
     borderopacity="0.25"
     inkscape:showpageshadow="2"
     inkscape:pageopacity="0.0"
     inkscape:pagecheckerboard="0"
     inkscape:deskcolor="#d1d1d1"
     inkscape:zoom="0.56502313"
     inkscape:cx="740.67764"
     inkscape:cy="588.47148"
     inkscape:window-width="1920"
     inkscape:window-height="1011"
     inkscape:window-x="0"
     inkscape:window-y="32"
     inkscape:window-maximized="1"
     inkscape:current-layer="svg64" />
  <!-- svg-source:excalidraw -->
  <defs
     id="defs1">
    <style
       class="style-fonts"
       id="style1">
      @font-face {
        font-family: &quot;Virgil&quot;;
        src: url(&quot;https://excalidraw.com/Virgil.woff2&quot;);
      }
      @font-face {
        font-family: &quot;Cascadia&quot;;
        src: url(&quot;https://excalidraw.com/Cascadia.woff2&quot;);
      }
      @font-face {
        font-family: &quot;Assistant&quot;;
        src: url(&quot;https://excalidraw.com/Assistant-Regular.woff2&quot;);
      }
    </style>
  </defs>
  <mask
     id="mask3" />
  <mask
     id="mask8" />
  <mask
     id="mask10" />
  <mask
     id="mask13" />
  <mask
     id="mask16" />
  <mask
     id="mask18" />
  <mask
     id="mask20" />
  <mask
     id="mask32" />
  <mask
     id="mask34" />
  <mask
     id="mask36" />
  <mask
     id="mask38" />
  <mask
     id="mask40" />
  <g
     transform="translate(65.40517217087961 102.38630324413805) rotate(0 15.72115421295166 19.68644664833826)"
     id="g47">
    <text
       x="0"
       y="27.592523622310893"
       font-family="Virgil, Segoe UI Emoji"
       font-size="31.4983146373412px"
       fill="#1e1e1e"
       text-anchor="start"
       style="white-space:pre;-inkscape-font-specification:'Dion, Normal';font-family:Dion;font-weight:normal;font-style:normal;font-stretch:normal;font-variant:normal;font-size:21.43728949px;font-variant-ligatures:normal;font-variant-caps:normal;font-variant-numeric:normal;font-variant-east-asian:normal"
       direction="ltr"
       dominant-baseline="alphabetic"
       id="text46">🗓️</text>
  </g>
  <g
     id="g65"
     transform="translate(-1.2034726e-5)">
    <rect
       x="0"
       y="0"
       width="741.56256"
       height="588.89435"
       fill="#ffffff"
       id="rect1" />
    <g
       stroke-linecap="round"
       transform="translate(45.29192,36.347224)"
       id="g1">
      <path
         d="M 32,0 C 174.74,0.05 318.08,-0.37 560.57,0 M 32,0 c 211.35,-1.16 421.95,-1.77 528.57,0 m 0,0 c 22.96,1.57 31.26,8.73 32,32 m -32,-32 c 20.33,-1.33 31.4,10.92 32,32 m 0,0 c -2.54,83.99 -0.71,168.92 0,355.31 m 0,-355.31 c -1.81,109.59 -1.31,218.16 0,355.31 m 0,0 c 0.01,22.43 -8.94,33.76 -32,32 m 32,-32 c 1.52,19.94 -9.08,30.73 -32,32 m 0,0 c -123.51,-0.04 -247.73,1.22 -528.57,0 m 528.57,0 c -143.94,-1.68 -288.26,-2.33 -528.57,0 m 0,0 c -21.03,1.11 -32.28,-10.82 -32,-32 m 32,32 c -21.86,1.23 -32.77,-10.41 -32,-32 m 0,0 C -1.88,263.92 -0.53,142.07 0,32 M 0,387.31 C 1.71,305.38 1.87,223.18 0,32 m 0,0 C -1.16,11.63 11.47,-0.55 32,0 M 0,32 C -2.18,10.71 12.93,-0.94 32,0"
         stroke="#1e1e1e"
         stroke-width="1"
         fill="none"
         id="path1" />
    </g>
    <g
       stroke-linecap="round"
       id="g3">
      <g
         transform="translate(45.402692,85.38593)"
         id="g2">
        <path
           d="M -0.49,0.02 C 99,-0.14 497.41,0.45 596.95,0.26 M 1.46,-1.02 c 99.33,-0.03 495.51,-0.81 594.59,-0.7"
           stroke="#1e1e1e"
           stroke-width="1"
           fill="none"
           id="path2" />
      </g>
    </g>
    <g
       stroke-linecap="round"
       transform="translate(545.26963,48.76378)"
       id="g4">
      <path
         d="m 1.74,1.52 c 0,0 0,0 0,0 m 0,0 c 0,0 0,0 0,0 M 2.79,6.4 C 3.67,4.73 6.32,2.41 7.39,1.12 M 2.79,6.4 C 4.16,4.71 5.46,3.04 7.39,1.12 M 3.19,12.05 C 4.44,9.09 9.18,7.46 13.03,0.73 M 3.19,12.05 C 6.11,8.97 7.99,6.35 13.03,0.73 M 0.96,20.71 C 8.44,12.44 12.11,4.02 18.02,1.09 M 0.96,20.71 C 4.4,14.92 8.71,11.45 18.02,1.09 M 2.67,24.84 C 8.71,18.47 15.19,13.01 22.35,2.2 M 2.67,24.84 C 6.71,19.33 11.03,14.36 22.35,2.2 M 7,25.96 C 10.12,22.2 16.58,17.33 26.68,3.32 M 7,25.96 C 13.26,18.13 21.33,11.03 26.68,3.32 m -14.7,23 C 18.2,19.36 22.5,15.03 27.73,8.2 M 11.98,26.32 C 15.31,21.91 19.36,18.19 27.73,8.2 M 16.97,26.68 C 20.4,22.48 25.89,16.56 28.12,13.85 M 16.97,26.68 c 2.21,-3.05 6.09,-6.84 11.15,-12.83 M 21.3,27.79 c 3.04,-2.43 4.51,-5.11 5.91,-6.79 m -5.91,6.79 c 1.67,-1.32 3.02,-3.04 5.91,-6.79"
         stroke="#1e1e1e"
         stroke-width="0.5"
         fill="none"
         id="path3" />
      <path
         d="m 6.55,0 c 4.57,-0.76 10.2,0.51 13.1,0 M 6.55,0 c 4.26,-0.06 9.06,0.28 13.1,0 m 0,0 c 4.71,1.25 4.72,2.63 6.55,6.55 M 19.65,0 c 3.33,-0.33 7.94,3.4 6.55,6.55 m 0,0 c 0.34,3.29 -0.28,9.2 0,13.1 m 0,-13.1 c -0.55,3.21 -0.48,5.88 0,13.1 m 0,0 c -1.04,2.74 -3.93,5.16 -6.55,6.55 m 6.55,-6.55 c -0.56,6.24 -3.43,5.45 -6.55,6.55 m 0,0 c -2.43,0.26 -4.62,0.59 -13.1,0 m 13.1,0 c -3.06,0.53 -5.6,-0.33 -13.1,0 m 0,0 C 3.71,27.33 0.74,22.79 0,19.65 M 6.55,26.2 C 3.98,27.39 1.13,25.66 0,19.65 m 0,0 C 0.43,16.08 -0.84,13.39 0,6.55 m 0,13.1 c 0.04,-4.1 0.09,-9.17 0,-13.1 m 0,0 C 1.93,2.65 0.21,1.34 6.55,0 M 0,6.55 C -0.32,3.57 3.93,2.1 6.55,0"
         stroke="#1e1e1e"
         stroke-width="1"
         fill="none"
         id="path4" />
    </g>
    <g
       stroke-linecap="round"
       transform="translate(498.64865,58.096371)"
       id="g6">
      <path
         d="m 0.5,0.44 c 0,0 0,0 0,0 m 0,0 c 0,0 0,0 0,0 M 0.9,6.08 C 1.68,5.19 3.4,3.32 6.14,0.04 M 0.9,6.08 C 2.22,4.61 3.32,3.5 6.14,0.04 M 4.57,7.95 C 6.19,6.49 7.75,4.29 11.13,0.4 M 4.57,7.95 C 6.28,5.88 7.8,4.13 11.13,0.4 m -0.92,7.15 c 2.17,-2.27 3.14,-3.77 6.56,-7.54 m -6.56,7.54 c 2.3,-2.51 4.43,-4.66 6.56,-7.54 M 15.2,7.91 C 16.8,5.65 18.56,3.75 21.76,0.37 M 15.2,7.91 C 16.61,6.25 18.09,4.54 21.76,0.37 M 20.84,7.52 C 22.79,4.83 25.26,2.18 27.4,-0.03 M 20.84,7.52 C 23.38,4.96 25.28,2 27.4,-0.03 m -1.57,7.91 c 1.14,-1.24 2.3,-2.55 3.94,-4.53 m -3.94,4.53 c 1.08,-1.37 2.51,-2.76 3.94,-4.53"
         stroke="#1e1e1e"
         stroke-width="0.5"
         fill="none"
         id="path5" />
      <path
         d="M 1.88,0 C 11.7,0.66 19.5,0.26 27.91,0 M 1.88,0 c 6.72,-0.11 13.4,0.16 26.03,0 m 0,0 c 2.21,-0.39 2.38,1.48 1.88,1.88 M 27.91,0 c 1.64,0.52 0.98,1.28 1.88,1.88 m 0,0 c 0.16,0.91 0.08,1.58 0,3.77 m 0,-3.77 c 0.01,1.29 -0.03,2.73 0,3.77 m 0,0 c -0.3,1.01 -0.48,2.06 -1.88,1.89 m 1.88,-1.89 c 0.43,0.48 -0.46,1.6 -1.88,1.89 m 0,0 C 19.45,8.42 11.16,6.8 1.88,7.54 m 26.03,0 C 19.97,7.08 11.54,7.9 1.88,7.54 m 0,0 C 0.83,7.51 0.08,6.43 0,5.65 M 1.88,7.54 C 0.84,6.41 0.5,7.75 0,5.65 m 0,0 C 0.17,4.32 0.06,3.42 0,1.88 M 0,5.65 C -0.02,4.82 0.05,4.04 0,1.88 m 0,0 C -0.05,-0.02 1.59,0.07 1.88,0 M 0,1.88 C -0.77,1.27 -0.17,-0.97 1.88,0"
         stroke="#1e1e1e"
         stroke-width="1"
         fill="none"
         id="path6" />
    </g>
    <g
       stroke-linecap="round"
       id="g8">
      <g
         transform="translate(589.46194,48.073222)"
         id="g7">
        <path
           d="M 1.16,1.02 C 5.61,5.07 22.07,21.59 25.95,25.46 M 0.31,0.51 C 4.73,5.29 20.92,23 25.33,27.07"
           stroke="#1e1e1e"
           stroke-width="1"
           fill="none"
           id="path7" />
      </g>
    </g>
    <g
       stroke-linecap="round"
       id="g10">
      <g
         transform="translate(613.03636,49.414816)"
         id="g9">
        <path
           d="M 0.95,-0.27 C -3.16,3.99 -19.87,22.15 -24.31,26.36 M -0.01,-1.46 C -4.22,2.42 -20.3,20.19 -24.74,24.79"
           stroke="#1e1e1e"
           stroke-width="1"
           fill="none"
           id="path8" />
      </g>
    </g>
    <g
       transform="translate(65.608585,39.769677)"
       id="g11">
      <text
         x="0"
         y="28.186047"
         font-family="Virgil, Segoe UI Emoji"
         font-size="32.1758514899625px"
         fill="#1e1e1e"
         text-anchor="start"
         style="font-style:normal;font-variant:normal;font-weight:normal;font-stretch:normal;font-size:22.4352px;font-family:Dion;-inkscape-font-specification:'Dion, Normal';font-variant-ligatures:normal;font-variant-caps:normal;font-variant-numeric:normal;font-variant-east-asian:normal;white-space:pre"
         direction="ltr"
         dominant-baseline="alphabetic"
         id="text10">My awesome App</text>
    </g>
    <g
       stroke-linecap="round"
       id="g13">
      <g
         transform="translate(341.42524,13.543382)"
         id="g12">
        <path
           d="m -0.76,0.11 c 0.18,85.44 1.7,426.62 1.73,511.82"
           stroke="#f08c00"
           stroke-width="1.5"
           fill="none"
           stroke-dasharray="8, 9"
           id="path11" />
      </g>
    </g>
    <g
       stroke-linecap="round"
       transform="translate(353.02886,172.81934)"
       id="g14">
      <path
         d="M 32,0 C 83.6,0.71 133.71,-1.66 240.17,0 M 32,0 c 73.92,1.08 148.33,0.19 208.17,0 m 0,0 c 20.38,-1.15 32.32,12.34 32,32 m -32,-32 c 19.66,-1.44 31.88,9.43 32,32 m 0,0 c 1.55,26.91 -0.72,55.84 0,128.6 m 0,-128.6 c 0.63,47.03 0.36,94.74 0,128.6 m 0,0 c 0.03,20.33 -9.13,30.69 -32,32 m 32,-32 c -0.84,23.04 -11.68,30.04 -32,32 m 0,0 c -61.77,0.11 -120.96,0.65 -208.17,0 m 208.17,0 c -60.6,0.59 -119.99,1.06 -208.17,0 m 0,0 C 9.8,192.85 0.26,181.76 0,160.6 m 32,32 C 9.94,194.31 -1.83,180.62 0,160.6 m 0,0 C -1.44,125.94 -2.56,93.18 0,32 M 0,160.6 C 0.29,130.24 0.97,99.32 0,32 m 0,0 C -1.87,11.74 11.5,-1.46 32,0 M 0,32 C -0.89,11.47 12.49,-1.57 32,0"
         stroke="#1e1e1e"
         stroke-width="1"
         fill="none"
         id="path13" />
    </g>
    <g
       stroke-linecap="round"
       id="g16">
      <g
         transform="translate(381.05925,340.09745)"
         id="g15">
        <path
           d="m 0.15,0.21 c 11.51,-18.97 33.44,-92.39 67.91,-114.24 34.46,-21.86 115.43,-13.84 138.88,-16.88 M -1.24,-0.72 c 12.01,-18.77 36.57,-89.84 71.66,-111.83 35.09,-21.99 115.7,-17 138.88,-20.12"
           stroke="#1971c2"
           stroke-width="1"
           fill="none"
           id="path14" />
      </g>
    </g>
    <g
       stroke-linecap="round"
       id="g18">
      <g
         transform="translate(367.49616,341.00166)"
         id="g17">
        <path
           d="M -0.88,0.68 C 36.74,0.38 188.83,-0.73 226.61,-0.98 M 0.86,-0.01 c 37.43,-0.26 187.76,0.04 225.09,0.05"
           stroke="#e03131"
           stroke-width="1"
           fill="none"
           id="path16" />
      </g>
    </g>
    <g
       stroke-linecap="round"
       id="g20">
      <g
         transform="translate(379.25084,351.85213)"
         id="g19">
        <path
           d="M 0.28,-0.29 C 0.51,-27.1 0.22,-133.64 0.29,-160.23 M -1.03,-1.49 c 0.19,-27.21 0.3,-133.79 0.52,-160.49"
           stroke="#e03131"
           stroke-width="1"
           fill="none"
           id="path18" />
      </g>
    </g>
    <g
       stroke-linecap="round"
       transform="translate(383.45291,317.91126)"
       id="g21">
      <path
         d="M 3.99,-0.28 C 4.68,-0.34 5.34,0.26 5.86,0.79 6.39,1.32 6.9,2.08 7.12,2.9 7.34,3.72 7.59,5.04 7.19,5.71 6.78,6.38 5.48,6.68 4.69,6.94 3.9,7.2 3.13,7.52 2.44,7.25 1.75,6.98 0.91,6.06 0.54,5.32 0.18,4.58 0.16,3.58 0.24,2.84 0.32,2.1 0.44,1.29 1.02,0.87 1.59,0.45 3.16,0.46 3.69,0.33 4.22,0.19 4.22,0.06 4.22,0.06 m 0.01,0.22 c 0.86,-0.1 1.8,-0.22 2.34,0.39 0.54,0.6 0.91,2.35 0.91,3.22 0.01,0.87 -0.42,1.4 -0.87,2 C 6.16,6.48 5.57,7.19 4.79,7.46 4.01,7.72 2.71,7.81 1.93,7.47 1.15,7.12 0.42,6.15 0.11,5.4 -0.19,4.66 -0.13,3.72 0.1,3 0.32,2.28 0.88,1.63 1.46,1.07 2.05,0.51 3.13,-0.14 3.61,-0.37 4.1,-0.6 4.37,-0.51 4.36,-0.33"
         stroke="#1e1e1e"
         stroke-width="1"
         fill="none"
         id="path20" />
    </g>
    <g
       stroke-linecap="round"
       transform="translate(398.24358,299.01207)"
       id="g22">
      <path
         d="m 3.52,-0.1 c 0.76,0 2,0.54 2.6,1.02 C 6.71,1.4 6.96,2.05 7.07,2.79 7.18,3.53 7.16,4.6 6.77,5.37 6.39,6.14 5.48,7.12 4.76,7.42 4.03,7.72 3.14,7.46 2.41,7.18 1.68,6.9 0.76,6.43 0.36,5.75 -0.04,5.08 -0.09,3.95 0.02,3.14 0.13,2.33 0.37,1.49 1.02,0.91 1.66,0.34 3.45,-0.2 3.91,-0.31 4.37,-0.43 3.8,0.07 3.77,0.22 M 3.41,-0.04 C 4.17,-0.02 5.19,0.39 5.85,0.93 6.52,1.46 7.27,2.5 7.42,3.18 7.57,3.87 7.25,4.31 6.78,5.02 6.3,5.72 5.22,7.12 4.57,7.43 3.91,7.74 3.48,7.22 2.84,6.88 2.2,6.53 1.13,6.07 0.72,5.37 0.3,4.66 0.21,3.44 0.35,2.64 0.49,1.83 1.08,1.02 1.57,0.52 c 0.49,-0.5 1.4,-0.77 1.72,-0.91 0.31,-0.13 0.16,0.05 0.18,0.12"
         stroke="#1e1e1e"
         stroke-width="1"
         fill="none"
         id="path21" />
    </g>
    <g
       stroke-linecap="round"
       transform="translate(403.79007,267.58191)"
       id="g23">
      <path
         d="M 3.47,-0.12 C 4.19,-0.14 5.24,0.17 5.93,0.71 6.61,1.25 7.43,2.31 7.59,3.1 7.75,3.9 7.29,4.79 6.88,5.46 6.47,6.14 5.86,6.92 5.13,7.15 4.39,7.38 3.25,7.09 2.48,6.84 1.71,6.58 0.98,6.29 0.52,5.64 0.07,4.99 -0.41,3.75 -0.25,2.95 -0.08,2.15 0.8,1.33 1.51,0.83 2.22,0.33 3.63,0.14 4,-0.03 4.36,-0.19 3.77,-0.23 3.71,-0.17 M 3.66,-0.14 C 4.32,-0.32 4.77,-0.28 5.42,0.28 6.07,0.84 7.36,2.32 7.57,3.2 7.78,4.08 7.13,4.85 6.69,5.55 6.25,6.25 5.69,7.07 4.94,7.4 4.18,7.73 2.95,7.87 2.16,7.53 1.38,7.19 0.65,6.12 0.23,5.38 -0.19,4.64 -0.46,3.86 -0.36,3.1 -0.26,2.34 0.23,1.31 0.81,0.8 1.4,0.29 2.69,0.14 3.16,0.04 3.62,-0.05 3.53,0.2 3.6,0.23"
         stroke="#1e1e1e"
         stroke-width="1"
         fill="none"
         id="path22" />
    </g>
    <g
       stroke-linecap="round"
       transform="translate(432.96055,241.49283)"
       id="g24">
      <path
         d="M 3.34,0.03 C 4.1,-0.09 5.02,0.41 5.66,0.87 6.31,1.34 7.04,2.08 7.22,2.81 7.4,3.55 7.04,4.64 6.74,5.29 6.45,5.94 6.1,6.37 5.43,6.72 4.76,7.08 3.51,7.54 2.72,7.42 1.93,7.3 1.14,6.72 0.69,6.03 0.23,5.33 -0.04,4.11 -0.02,3.26 0,2.41 0.26,1.51 0.82,0.95 1.38,0.39 2.92,0.03 3.37,-0.11 3.82,-0.24 3.49,0.08 3.52,0.14 M 3.46,-0.27 c 0.85,-0.25 1.65,0.19 2.33,0.56 0.67,0.38 1.43,1 1.71,1.72 C 7.77,2.73 7.83,3.88 7.44,4.63 7.05,5.39 5.91,6.15 5.14,6.54 4.38,6.93 3.59,7.12 2.83,6.98 2.08,6.85 1.09,6.25 0.62,5.71 0.16,5.17 -0.03,4.48 0.04,3.76 0.11,3.04 0.56,1.97 1.05,1.38 1.53,0.78 2.69,0.33 2.96,0.19 3.24,0.04 2.59,0.42 2.7,0.51"
         stroke="#1e1e1e"
         stroke-width="1"
         fill="none"
         id="path23" />
    </g>
    <g
       stroke-linecap="round"
       transform="translate(460.07677,214.78746)"
       id="g25">
      <path
         d="M 3.56,-0.31 C 4.28,-0.37 5.37,0.35 5.94,0.86 6.51,1.37 6.77,2.02 6.97,2.77 7.18,3.52 7.42,4.62 7.16,5.34 6.89,6.05 6.15,6.77 5.37,7.05 4.6,7.33 3.33,7.23 2.52,7 1.7,6.78 0.91,6.33 0.47,5.72 0.04,5.12 -0.22,4.12 -0.1,3.36 0.03,2.6 0.61,1.76 1.2,1.15 1.79,0.54 3.08,-0.17 3.43,-0.32 3.78,-0.46 3.24,0.18 3.3,0.26 M 3.46,0.3 C 4.19,0.19 5.28,0.2 5.87,0.67 6.46,1.14 6.89,2.31 6.99,3.12 7.08,3.93 6.86,4.85 6.43,5.54 6,6.24 5.1,7 4.41,7.28 3.73,7.56 2.98,7.58 2.33,7.23 1.67,6.88 0.82,6 0.48,5.19 0.13,4.39 0.01,3.07 0.25,2.4 0.48,1.73 1.23,1.59 1.89,1.18 2.55,0.77 3.91,0.17 4.2,-0.05 4.49,-0.27 3.71,-0.15 3.65,-0.15"
         stroke="#1e1e1e"
         stroke-width="1"
         fill="none"
         id="path24" />
    </g>
    <g
       stroke-linecap="round"
       transform="translate(499.92939,211.29522)"
       id="g26">
      <path
         d="M 3.75,0.15 C 4.48,0.2 5.56,0.64 6.16,1.12 6.75,1.6 7.25,2.29 7.33,3.01 7.4,3.74 7.02,4.8 6.6,5.48 6.19,6.16 5.54,6.8 4.84,7.09 4.14,7.37 3.11,7.48 2.4,7.2 1.69,6.91 1.01,6.11 0.57,5.36 0.13,4.6 -0.41,3.37 -0.24,2.65 -0.07,1.93 0.94,1.46 1.58,1.04 2.23,0.62 3.28,0.26 3.64,0.13 4,0.01 3.76,0.21 3.74,0.28 m -0.68,-0.6 c 0.76,-0.13 1.73,0.08 2.43,0.59 0.7,0.5 1.48,1.62 1.77,2.45 0.3,0.82 0.33,1.77 -0.01,2.5 -0.33,0.74 -1.2,1.49 -2,1.91 C 4.45,7.54 3.13,7.84 2.46,7.69 1.79,7.54 1.64,6.94 1.22,6.2 0.8,5.46 0.03,4.09 -0.05,3.24 -0.13,2.39 0.27,1.57 0.75,1.1 1.22,0.64 2.39,0.63 2.79,0.45 3.19,0.27 3.08,-0.03 3.12,0.03"
         stroke="#1e1e1e"
         stroke-width="1"
         fill="none"
         id="path25" />
    </g>
    <g
       stroke-linecap="round"
       transform="translate(546.35564,202.46191)"
       id="g27">
      <path
         d="M 3.56,-0.24 C 4.25,-0.29 5.31,0.28 5.93,0.84 6.54,1.4 7.05,2.32 7.22,3.12 7.39,3.93 7.35,5.05 6.96,5.67 6.56,6.29 5.66,6.57 4.86,6.85 4.05,7.13 2.82,7.61 2.13,7.35 1.44,7.1 1.05,6.08 0.73,5.33 0.41,4.59 0.05,3.7 0.19,2.9 0.32,2.1 0.9,1.07 1.53,0.55 c 0.63,-0.53 2.1,-0.68 2.44,-0.8 0.35,-0.12 -0.3,0 -0.35,0.07 M 3.56,0.16 C 4.38,0.03 5.32,0.19 5.97,0.56 6.61,0.94 7.19,1.52 7.43,2.39 7.67,3.26 7.73,5.01 7.4,5.79 7.08,6.56 6.3,6.81 5.46,7.02 4.63,7.22 3.22,7.3 2.4,7.02 1.58,6.73 0.87,5.96 0.55,5.32 0.22,4.69 0.36,3.95 0.44,3.19 0.53,2.43 0.49,1.36 1.06,0.77 1.64,0.19 3.49,-0.25 3.9,-0.33 4.3,-0.4 3.57,0.18 3.49,0.34"
         stroke="#1e1e1e"
         stroke-width="1"
         fill="none"
         id="path26" />
    </g>
    <g
       stroke-linecap="round"
       transform="translate(586.89911,204.08562)"
       id="g28">
      <path
         d="M 3.48,0.07 C 4.25,-0.03 5.39,0.19 5.97,0.59 6.55,0.99 6.75,1.66 6.96,2.48 7.17,3.3 7.54,4.75 7.21,5.53 6.89,6.32 5.79,6.87 5.01,7.2 4.24,7.52 3.33,7.67 2.55,7.46 1.77,7.26 0.79,6.7 0.33,5.98 -0.14,5.25 -0.32,3.94 -0.24,3.1 -0.15,2.26 0.28,1.48 0.85,0.94 1.43,0.4 2.83,0.01 3.23,-0.13 3.64,-0.27 3.25,0 3.3,0.1 M 3.39,0.39 C 4.25,0.38 5.98,0.79 6.63,1.2 7.28,1.62 7.3,2.17 7.3,2.89 7.3,3.62 7.09,4.77 6.6,5.56 6.12,6.35 5.15,7.38 4.41,7.63 3.68,7.88 2.91,7.35 2.2,7.06 1.5,6.77 0.59,6.58 0.18,5.9 -0.23,5.22 -0.5,3.84 -0.26,2.98 -0.01,2.12 0.95,1.17 1.66,0.73 2.38,0.3 3.68,0.54 4.02,0.37 4.35,0.2 3.66,-0.27 3.68,-0.28"
         stroke="#2f9e44"
         stroke-width="1"
         fill="none"
         id="path27" />
    </g>
    <g
       stroke-linecap="round"
       transform="translate(440.25261,392.32005)"
       id="g29">
      <path
         d="m 2.33,2.02 c 0,0 0,0 0,0 m 0,0 c 0,0 0,0 0,0 M 0.1,10.69 C 2.27,9.45 3.76,5.22 9.28,0.12 M 0.1,10.69 C 2.39,8.51 5.38,5.07 9.28,0.12 M 0.49,16.33 C 3.78,12.37 9.05,5.72 14.27,0.48 M 0.49,16.33 C 5.48,11.38 10.18,4.5 14.27,0.48 M 0.89,21.97 C 3.94,18.23 11.85,11.42 19.91,0.09 M 0.89,21.97 C 6.79,14.68 13.34,7.34 19.91,0.09 M 0.63,28.37 C 6.77,23.95 10.54,14.9 24.9,0.45 M 0.63,28.37 C 7.15,19.81 15.13,10.99 24.9,0.45 M 2.99,31.75 C 10.61,21 22.97,10.31 29.89,0.81 M 2.99,31.75 C 11.63,20.11 22.06,8.93 29.89,0.81 M 5.35,35.13 C 11.94,27.58 21.97,18.49 35.53,0.41 M 5.35,35.13 C 16.62,21.63 28.11,8.27 35.53,0.41 M 11,34.73 C 17.1,26.8 23.23,20.88 40.52,0.77 M 11,34.73 C 22.64,22.19 33.9,8.09 40.52,0.77 M 15.98,35.09 C 27.69,23.93 36.56,13.47 46.16,0.38 M 15.98,35.09 C 24.61,23.74 35.79,12.27 46.16,0.38 M 21.63,34.7 C 31.86,20.84 45.53,10.27 51.15,0.74 M 21.63,34.7 C 28.11,26.07 35.38,18.3 51.15,0.74 M 26.61,35.06 C 37.35,25.48 45.97,13.02 56.79,0.34 M 26.61,35.06 C 33.49,25.84 41.11,18.69 56.79,0.34 M 31.6,35.42 C 41.83,21.23 55.6,8.47 61.78,0.7 M 31.6,35.42 C 42.27,22.04 53.75,7.99 61.78,0.7 M 37.24,35.02 c 8.95,-9.07 16,-17.29 29.53,-33.96 M 37.24,35.02 C 48.08,22.59 57.85,12.11 66.77,1.06 M 42.23,35.38 C 48.59,26.91 53.15,21.14 72.41,0.67 M 42.23,35.38 C 55.18,20.93 66.73,8.01 72.41,0.67 M 47.87,34.99 C 58.42,22.15 70.71,7.86 77.4,1.03 M 47.87,34.99 C 56.01,24.93 64.55,15.62 77.4,1.03 M 52.86,35.35 C 59.28,26.39 66.8,18.28 83.04,0.63 M 52.86,35.35 C 63.33,22.04 75.79,9.84 83.04,0.63 M 58.5,34.96 C 67.36,23.02 78.4,12.25 88.03,0.99 M 58.5,34.96 C 67.45,23.42 77.99,13.69 88.03,0.99 M 63.49,35.32 C 75.06,21.29 85.98,10.63 93.01,1.35 M 63.49,35.32 C 71.38,26.94 78.07,18.44 93.01,1.35 M 68.48,35.68 C 74.4,26.99 81.72,21.18 96.03,3.98 M 68.48,35.68 C 73.44,28.41 81.08,21.55 96.03,3.98 M 74.12,35.28 C 82.97,26.4 90.9,13.57 97.74,8.11 M 74.12,35.28 C 82.37,25.36 90.45,16.3 97.74,8.11 M 79.11,35.64 c 5.5,-7.33 9.91,-13.56 18.37,-21.13 M 79.11,35.64 C 84.78,28.85 90.72,22.48 97.48,14.51 M 84.75,35.25 c 4.91,-4.21 6.45,-5.13 13.12,-15.1 M 84.75,35.25 C 88.92,29.06 94.8,24.74 97.87,20.15 m -8.13,15.46 c 2.14,-3.23 4.49,-5.94 7.87,-9.06 m -7.87,9.06 c 2.76,-2.2 4.22,-5.08 7.87,-9.06"
         stroke="#b2f2bb"
         stroke-width="0.5"
         fill="none"
         id="path28" />
      <path
         d="M 8.75,0 C 33.76,-0.81 58.58,-1.92 88.97,0 M 8.75,0 c 30.12,-0.98 60.01,-0.59 80.22,0 m 0,0 c 4.07,1.69 8.27,2.64 8.75,8.75 M 88.97,0 c 4.62,2.1 7.21,3.09 8.75,8.75 m 0,0 c 1.26,5.66 -1.27,13.31 0,17.5 m 0,-17.5 c -0.1,5.38 0.41,10.09 0,17.5 m 0,0 c 0.07,7.59 -3.02,8.44 -8.75,8.75 m 8.75,-8.75 c 1.81,7.7 -4.96,6.95 -8.75,8.75 m 0,0 C 66.03,36.22 48.1,34.91 8.75,35 m 80.22,0 C 66.59,35.62 42.53,35.23 8.75,35 m 0,0 C 3.6,34.37 -1.05,32.89 0,26.25 M 8.75,35 C 4.29,36.92 -2.06,31.92 0,26.25 m 0,0 C -1.02,22.26 0.37,16.31 0,8.75 m 0,17.5 C 0.83,20.98 -0.21,13.94 0,8.75 m 0,0 C -0.73,4.64 3.18,-0.16 8.75,0 M 0,8.75 C 1.53,4.92 2.49,-1.52 8.75,0"
         stroke="#1e1e1e"
         stroke-width="1"
         fill="none"
         id="path29" />
    </g>
    <g
       transform="translate(464.67918,397.32005)"
       id="g30">
      <text
         x="24.432692"
         y="17.52"
         font-family="Virgil, Segoe UI Emoji"
         font-size="20px"
         fill="#1e1e1e"
         text-anchor="middle"
         style="font-style:normal;font-variant:normal;font-weight:normal;font-stretch:normal;font-size:22.4352px;font-family:Dion;-inkscape-font-specification:'Dion, Normal';font-variant-ligatures:normal;font-variant-caps:normal;font-variant-numeric:normal;font-variant-east-asian:normal;white-space:pre"
         direction="ltr"
         dominant-baseline="alphabetic"
         id="text29">SAVE</text>
    </g>
    <g
       stroke-linecap="round"
       id="g32">
      <g
         transform="translate(636.73795,56.492878)"
         id="g31">
        <path
           d="M -0.91,-0.49 C -0.69,86.56 0.61,435.04 0.65,522.4"
           stroke="#f08c00"
           stroke-width="1.5"
           fill="none"
           stroke-dasharray="8, 9"
           id="path30" />
      </g>
    </g>
    <g
       stroke-linecap="round"
       id="g34">
      <g
         transform="translate(45.659712,9.8471071)"
         id="g33">
        <path
           d="m -1.13,0.15 c 0.08,87.38 1.06,436.78 1.42,523.89"
           stroke="#f08c00"
           stroke-width="1.5"
           fill="none"
           stroke-dasharray="8, 9"
           id="path32" />
      </g>
    </g>
    <g
       stroke-linecap="round"
       id="g36">
      <g
         transform="translate(10.508817,35.833052)"
         id="g35">
        <path
           d="M -0.51,0.51 C 112.85,0.38 566.76,0.13 680.34,0.19"
           stroke="#f08c00"
           stroke-width="1.5"
           fill="none"
           stroke-dasharray="8, 9"
           id="path34" />
      </g>
    </g>
    <g
       stroke-linecap="round"
       id="g38">
      <g
         transform="translate(52.677844,82.894749)"
         id="g37">
        <path
           d="M -0.96,1.11 C 112.35,1.04 565.59,0.82 678.88,0.52"
           stroke="#f08c00"
           stroke-width="1.5"
           fill="none"
           stroke-dasharray="8, 9"
           id="path36" />
      </g>
    </g>
    <g
       stroke-linecap="round"
       id="g40">
      <g
         transform="translate(15.847295,453.41349)"
         id="g39">
        <path
           d="M 0.64,1.17 C 113.86,1.1 566.92,-0.57 680.27,-0.82"
           stroke="#f08c00"
           stroke-width="1.5"
           fill="none"
           stroke-dasharray="8, 9"
           id="path38" />
      </g>
    </g>
    <g
       stroke-linecap="round"
       transform="translate(389.60056,110.91451)"
       id="g41">
      <path
         d="m 2.33,2.02 c 0,0 0,0 0,0 m 0,0 c 0,0 0,0 0,0 M 0.1,10.69 C 2.76,7.94 4.21,6.66 9.28,0.12 M 0.1,10.69 C 3.19,7.22 5.49,5.39 9.28,0.12 M 0.49,16.33 C 1.64,14 6.18,7.97 14.27,0.48 M 0.49,16.33 C 5.74,10.18 10.22,4.83 14.27,0.48 M 0.89,21.97 C 6.37,14.31 13.31,6.73 19.91,0.09 M 0.89,21.97 C 7.52,14.95 14.39,6.58 19.91,0.09 M 0.63,28.37 C 8.15,18.8 16.82,10.65 24.9,0.45 M 0.63,28.37 C 6.8,22.3 12.19,14.96 24.9,0.45 M 2.99,31.75 C 9.79,21.76 17.25,15.54 29.89,0.81 M 2.99,31.75 c 9.31,-9 17.82,-19.06 26.9,-30.94 M 5.35,35.13 C 17.23,24.22 26.32,10.52 35.53,0.41 M 5.35,35.13 C 16.17,23.03 27.56,9.78 35.53,0.41 M 11,34.73 C 21.5,26.16 29.03,16.38 40.52,0.77 M 11,34.73 C 18.87,27.12 24.73,19.96 40.52,0.77 M 15.98,35.09 C 24.77,24.11 32.75,12.19 46.16,0.38 M 15.98,35.09 C 25.46,24.33 33.82,14.95 46.16,0.38 M 20.97,35.45 c 5.62,-8 11.57,-15.36 30.18,-34.71 M 20.97,35.45 C 28.66,27.72 35.96,18.39 51.15,0.74 M 26.61,35.06 C 37.55,22.12 46.07,12.21 56.14,1.1 M 26.61,35.06 C 37.17,23.16 46.83,11.83 56.14,1.1 M 31.6,35.42 C 40.29,23.46 49.99,12.68 61.78,0.7 M 31.6,35.42 C 37.65,27.78 43.73,20.05 61.78,0.7 M 37.24,35.02 C 43.03,24.96 52.15,16.12 66.77,1.06 M 37.24,35.02 C 44.92,25.74 51.7,18.08 66.77,1.06 M 42.23,35.38 C 52.74,21.75 64.95,10.48 71.75,1.42 M 42.23,35.38 C 49.8,27.6 55.07,19.48 71.75,1.42 M 47.87,34.99 C 53.34,27.69 63.5,18.79 74.77,4.05 M 47.87,34.99 C 56.37,23.98 65.67,14.23 74.77,4.05 M 52.86,35.35 C 62.17,24.01 71.09,16.28 75.82,8.94 M 52.86,35.35 C 58.69,30.02 62.8,24.3 75.82,8.94 M 57.85,35.71 C 64.99,30.14 69.31,24.58 76.22,14.58 M 57.85,35.71 C 64.31,28.36 70.31,21.12 76.22,14.58 M 63.49,35.32 C 64.8,31.31 68.17,28.57 75.96,20.98 M 63.49,35.32 C 67.6,30.55 72.61,24.84 75.96,20.98 m -6.83,13.94 c 2.09,-1.95 4.69,-6.12 7.22,-8.3 m -7.22,8.3 c 2.23,-3.45 4.96,-6.55 7.22,-8.3"
         stroke="#a5d8ff"
         stroke-width="0.5"
         fill="none"
         id="path40" />
      <path
         d="M 8.75,0 C 30.17,-0.55 53.97,1.58 67.16,0 M 8.75,0 c 12.79,0.49 25.76,0.28 58.41,0 m 0,0 c 5.47,0.38 7.93,3.42 8.75,8.75 M 67.16,0 c 4.8,-0.32 8.62,5.05 8.75,8.75 m 0,0 c 0.15,5.55 -1.05,9.26 0,17.5 m 0,-17.5 c -0.29,5.1 0.25,10.91 0,17.5 m 0,0 C 74.77,32.92 72.5,33.77 67.16,35 m 8.75,-8.75 c 0.31,4.71 -3.55,6.84 -8.75,8.75 m 0,0 C 55.24,33.71 44.43,35.17 8.75,35 m 58.41,0 C 53.77,36.25 42.09,35.39 8.75,35 m 0,0 C 2.01,33.56 1.84,32.66 0,26.25 M 8.75,35 C 2.68,36.97 2.01,34.3 0,26.25 m 0,0 C 0.8,22.27 1.44,16.59 0,8.75 m 0,17.5 C -0.26,20.92 -0.48,14.93 0,8.75 m 0,0 C 1.16,4.61 2.61,0.36 8.75,0 M 0,8.75 C 1.66,2.83 3.36,-0.13 8.75,0"
         stroke="#1e1e1e"
         stroke-width="1"
         fill="none"
         id="path41" />
    </g>
    <g
       transform="translate(398.73781,115.91451)"
       id="g42">
      <text
         x="28.817308"
         y="17.52"
         font-family="Virgil, Segoe UI Emoji"
         font-size="20px"
         fill="#1e1e1e"
         text-anchor="middle"
         style="font-style:normal;font-variant:normal;font-weight:normal;font-stretch:normal;font-size:22.4352px;font-family:Dion;-inkscape-font-specification:'Dion, Normal';font-variant-ligatures:normal;font-variant-caps:normal;font-variant-numeric:normal;font-variant-east-asian:normal;white-space:pre"
         direction="ltr"
         dominant-baseline="alphabetic"
         id="text41">DATA</text>
    </g>
    <g
       stroke-linecap="round"
       transform="translate(512.71407,110.91451)"
       id="g43">
      <path
         d="m 2.33,2.02 c 0,0 0,0 0,0 m 0,0 c 0,0 0,0 0,0 M 0.1,10.69 C 3.92,7.01 6.85,3.16 9.28,0.12 M 0.1,10.69 C 3.01,6.9 5.65,3.89 9.28,0.12 M 0.49,16.33 C 5.6,12.74 9.45,6.2 14.27,0.48 M 0.49,16.33 C 3.84,11.43 7.43,7.47 14.27,0.48 M 0.89,21.97 C 6.42,15.12 10.3,12.2 19.91,0.09 M 0.89,21.97 C 9.32,12.83 16.29,4.08 19.91,0.09 M 0.63,28.37 C 10.07,18.78 19.76,8.92 24.9,0.45 M 0.63,28.37 C 7.69,20.39 14.63,11.26 24.9,0.45 M 2.99,31.75 C 9.73,21.65 20.64,14.15 29.89,0.81 M 2.99,31.75 C 11.69,21.07 20.74,12.27 29.89,0.81 M 5.35,35.13 C 17.54,21.47 26.09,12.21 35.53,0.41 M 5.35,35.13 C 13.55,25.49 21.23,18.32 35.53,0.41 M 11,34.73 C 19.63,22.83 31.44,13.37 40.52,0.77 M 11,34.73 C 20.13,24.68 27.93,14.62 40.52,0.77 M 15.98,35.09 C 24.96,25.37 31.86,17.64 46.16,0.38 M 15.98,35.09 C 25.9,24.27 35.51,12.14 46.16,0.38 M 20.97,35.45 C 26.93,28.53 35.92,20.6 51.15,0.74 M 20.97,35.45 C 30.65,23.64 42.35,10.64 51.15,0.74 M 26.61,35.06 C 36.91,26.28 45.91,14.34 56.14,1.1 M 26.61,35.06 C 34.15,25.86 41.54,16.44 56.14,1.1 M 31.6,35.42 C 35.79,29.97 42.38,21.49 61.78,0.7 M 31.6,35.42 C 38.56,28.86 43.75,20.26 61.78,0.7 M 37.24,35.02 C 47.85,23.88 56.07,13.14 66.77,1.06 M 37.24,35.02 C 46.4,25.09 54.92,13.93 66.77,1.06 M 42.23,35.38 C 52.99,22.92 67.66,8.16 71.75,1.42 M 42.23,35.38 C 51.56,25.61 58.3,16.95 71.75,1.42 M 47.87,34.99 C 58.31,24.6 66.53,11.4 74.77,4.05 M 47.87,34.99 C 53.23,28.07 59.47,20.77 74.77,4.05 M 52.86,35.35 C 59.11,24.25 69.94,17.54 75.82,8.94 M 52.86,35.35 C 58.32,28.12 65.16,22.33 75.82,8.94 M 57.85,35.71 C 65.03,28.86 71.01,20.88 76.22,14.58 M 57.85,35.71 C 63.79,28.92 68.36,22.47 76.22,14.58 M 63.49,35.32 c 3.3,-5.11 4.83,-5.87 12.47,-14.34 M 63.49,35.32 c 2.29,-4.17 6.16,-6.9 12.47,-14.34 m -6.83,13.94 c 2.73,-3.18 3.29,-5.55 7.22,-8.3 m -7.22,8.3 c 1.66,-1.49 3.35,-4.26 7.22,-8.3"
         stroke="#a5d8ff"
         stroke-width="0.5"
         fill="none"
         id="path42" />
      <path
         d="M 8.75,0 C 28.11,-0.19 49.98,1.06 67.16,0 M 8.75,0 c 19.14,-0.31 38.16,-0.34 58.41,0 m 0,0 c 5.56,-0.11 10.61,1.63 8.75,8.75 M 67.16,0 c 3.77,-0.47 9.15,4.79 8.75,8.75 m 0,0 c 0.04,3.34 -0.47,7.18 0,17.5 m 0,-17.5 c 0.2,5.56 -0.71,11.66 0,17.5 m 0,0 c -0.98,5.28 -4.58,6.82 -8.75,8.75 m 8.75,-8.75 c -0.15,5.97 -2.94,7.23 -8.75,8.75 m 0,0 C 44.88,35.45 24.83,36.5 8.75,35 m 58.41,0 C 44.85,35.66 24.26,34.63 8.75,35 m 0,0 C 4.63,36.75 1.93,31.38 0,26.25 M 8.75,35 C 3.52,36.2 1.12,32.94 0,26.25 m 0,0 C -1.55,19.11 -0.79,14.27 0,8.75 m 0,17.5 C 0.57,22.14 -0.01,18.93 0,8.75 m 0,0 C -0.07,3.3 2.81,-0.64 8.75,0 M 0,8.75 C -2.27,0.94 4.3,0.33 8.75,0"
         stroke="#1e1e1e"
         stroke-width="1"
         fill="none"
         id="path43" />
    </g>
    <g
       transform="translate(522.90901,115.91451)"
       id="g44">
      <text
         x="27.759615"
         y="17.52"
         font-family="Virgil, Segoe UI Emoji"
         font-size="20px"
         fill="#1e1e1e"
         text-anchor="middle"
         style="font-style:normal;font-variant:normal;font-weight:normal;font-stretch:normal;font-size:22.4352px;font-family:Dion;-inkscape-font-specification:'Dion, Normal';font-variant-ligatures:normal;font-variant-caps:normal;font-variant-numeric:normal;font-variant-east-asian:normal;white-space:pre"
         direction="ltr"
         dominant-baseline="alphabetic"
         id="text43">PLOT</text>
    </g>
    <g
       stroke-linecap="round"
       transform="translate(116.30107,104.57275)"
       id="g45">
      <path
         d="M 8.75,0 C 79.7,0.51 148.42,-1.03 196.16,0 M 8.75,0 c 40.09,-1.46 80.77,-2.12 187.41,0 m 0,0 c 6.88,0.64 7.19,1.16 8.75,8.75 M 196.16,0 c 3.56,1.14 9.46,1.78 8.75,8.75 m 0,0 c -1.14,7.65 0.31,12.86 0,17.5 m 0,-17.5 c 0.28,6.32 -0.04,12.14 0,17.5 m 0,0 c -0.38,4.5 -2.41,7.92 -8.75,8.75 m 8.75,-8.75 c -1.89,4.97 -4.25,8.61 -8.75,8.75 m 0,0 C 123.58,34.73 52.84,34.19 8.75,35 m 187.41,0 C 132.96,35.04 70.31,33.78 8.75,35 m 0,0 C 4.31,36.23 -1.48,30.66 0,26.25 M 8.75,35 C 1.09,33.61 -1.93,29.8 0,26.25 m 0,0 C -1.26,22.94 -0.53,17.44 0,8.75 m 0,17.5 C -0.35,20.22 0.64,11.9 0,8.75 m 0,0 C 1.32,3.71 1.62,1.63 8.75,0 M 0,8.75 C -0.84,1.69 3.49,-1.95 8.75,0"
         stroke="#1e1e1e"
         stroke-width="1"
         fill="none"
         id="path44" />
    </g>
    <g
       transform="translate(160.20637,109.57275)"
       id="g46">
      <text
         x="58.548077"
         y="17.52"
         font-family="Virgil, Segoe UI Emoji"
         font-size="20px"
         fill="#1e1e1e"
         text-anchor="middle"
         style="font-style:normal;font-variant:normal;font-weight:normal;font-stretch:normal;font-size:22.4352px;font-family:Dion;-inkscape-font-specification:'Dion, Normal';font-variant-ligatures:normal;font-variant-caps:normal;font-variant-numeric:normal;font-variant-east-asian:normal;white-space:pre"
         direction="ltr"
         dominant-baseline="alphabetic"
         id="text45">2024-06-12</text>
    </g>
    <g
       stroke-linecap="round"
       transform="translate(144.44723,391.50269)"
       id="g48">
      <path
         d="m 2.33,2.02 c 0,0 0,0 0,0 m 0,0 c 0,0 0,0 0,0 M 0.76,9.93 C 2.24,7.75 6.04,3.36 9.28,0.12 M 0.76,9.93 C 3.34,7.48 4.13,5.99 9.28,0.12 M 1.15,15.57 C 3.38,8.95 8.94,4.5 14.27,0.48 M 1.15,15.57 C 3.86,11.37 7.99,7.2 14.27,0.48 M 1.54,21.22 C 6.32,16.92 12.76,10.41 19.91,0.09 M 1.54,21.22 C 6.09,15.21 12.22,8.76 19.91,0.09 M 1.28,27.62 C 11.76,17.34 19.37,6.37 24.9,0.45 M 1.28,27.62 C 10.19,18.75 17.42,10.11 24.9,0.45 M 2.99,31.75 C 11.82,21.55 22.01,12.42 29.89,0.81 M 2.99,31.75 C 11.56,23.69 18.82,14.64 29.89,0.81 M 5.35,35.13 C 14.46,25.76 21.8,18.7 35.53,0.41 M 5.35,35.13 C 14.43,24.52 22.56,15.8 35.53,0.41 M 11,34.73 C 20.87,25.16 31.84,10.45 40.52,0.77 M 11,34.73 C 19.97,24.16 27.66,14.83 40.52,0.77 M 15.98,35.09 C 24.95,24.55 36.78,12.13 46.16,0.38 M 15.98,35.09 C 21.82,28.25 29.31,20.59 46.16,0.38 M 21.63,34.7 C 27.55,25.98 36.17,15.61 51.15,0.74 M 21.63,34.7 C 31.9,23.47 42.13,10.63 51.15,0.74 M 26.61,35.06 C 32.89,26.22 40.67,18.21 56.79,0.34 M 26.61,35.06 C 33.29,28.61 37.74,20.9 56.79,0.34 M 31.6,35.42 C 44.75,22.79 55.9,10.02 61.78,0.7 M 31.6,35.42 C 42.36,23.27 51.98,13 61.78,0.7 M 37.24,35.02 C 47.67,22.25 60.77,9.81 66.77,1.06 M 37.24,35.02 C 44.86,25.12 53.94,17.85 66.77,1.06 M 42.23,35.38 C 52.54,23.7 62.16,13.09 72.41,0.67 M 42.23,35.38 C 50.09,26.04 58.03,15.91 72.41,0.67 M 47.87,34.99 C 58.75,20.33 71.93,7.41 77.4,1.03 M 47.87,34.99 C 59.47,21.86 69.71,8.31 77.4,1.03 M 52.86,35.35 C 61.64,24.75 70.65,15.96 83.04,0.63 M 52.86,35.35 C 61.05,28.16 66.87,20.38 83.04,0.63 M 58.5,34.96 C 67.52,23.26 80.22,9.54 88.03,0.99 M 58.5,34.96 C 66.07,26.93 72.02,19.44 88.03,0.99 M 63.49,35.32 C 72.93,24.86 85.24,10.82 93.01,1.35 M 63.49,35.32 C 70.81,26.6 77.22,19.81 93.01,1.35 M 68.48,35.68 C 78.35,27.32 83.13,16.08 96.03,3.98 M 68.48,35.68 C 77.31,26.4 85.02,17.39 96.03,3.98 M 74.12,35.28 C 81.16,27.94 88.25,15.83 99.05,6.6 M 74.12,35.28 C 82.2,26.7 91.71,15.29 99.05,6.6 M 79.11,35.64 C 85.23,28.12 91.45,22.55 98.79,13 M 79.11,35.64 C 85.32,27.37 93.01,19.99 98.79,13 M 84.75,35.25 C 88.1,31.15 95.07,22.69 99.18,18.64 M 84.75,35.25 C 89.23,29.56 95.59,23.26 99.18,18.64 m -9.44,16.97 c 1.43,-3.62 5.47,-4.31 9.18,-10.57 m -9.18,10.57 c 3.09,-3.52 6.48,-7.87 9.18,-10.57"
         stroke="#b2f2bb"
         stroke-width="0.5"
         fill="none"
         id="path47" />
      <path
         d="m 8.75,0 c 31.6,0.19 57.23,0.88 80.22,0 M 8.75,0 c 25.12,-0.04 51.22,0.42 80.22,0 m 0,0 c 4.72,-0.46 8.1,4.66 8.75,8.75 M 88.97,0 c 3.74,0.91 9.5,5.07 8.75,8.75 m 0,0 c -0.94,5.24 0.07,7.96 0,17.5 m 0,-17.5 c 0.69,5.94 -0.73,11.59 0,17.5 m 0,0 C 97.78,30.8 95.5,33.43 88.97,35 m 8.75,-8.75 c -1.59,5.58 -4.09,8.49 -8.75,8.75 m 0,0 C 56.06,36.7 24.8,33.92 8.75,35 m 80.22,0 C 61.84,34.99 35.35,35.17 8.75,35 m 0,0 C 2.43,36.1 -0.2,33.14 0,26.25 M 8.75,35 C 3.29,34.16 0.94,33.17 0,26.25 m 0,0 C -0.85,23.97 -0.18,20.73 0,8.75 m 0,17.5 C 0.12,20.71 -0.03,14.58 0,8.75 m 0,0 C 1.14,3.66 1.71,1.36 8.75,0 M 0,8.75 C -0.84,0.83 4.67,-1.3 8.75,0"
         stroke="#1e1e1e"
         stroke-width="1"
         fill="none"
         id="path48" />
    </g>
    <g
       transform="translate(165.83534,396.50269)"
       id="g49">
      <text
         x="27.471153"
         y="17.52"
         font-family="Virgil, Segoe UI Emoji"
         font-size="20px"
         fill="#1e1e1e"
         text-anchor="middle"
         style="font-style:normal;font-variant:normal;font-weight:normal;font-stretch:normal;font-size:21.4373px;font-family:Dion;-inkscape-font-specification:'Dion, Normal';font-variant-ligatures:normal;font-variant-caps:normal;font-variant-numeric:normal;font-variant-east-asian:normal;white-space:pre"
         direction="ltr"
         dominant-baseline="alphabetic"
         id="text48">LOAD</text>
    </g>
    <g
       transform="translate(67.678251,170.13094)"
       id="g50">
      <text
         x="0"
         y="17.52"
         font-family="Virgil, Segoe UI Emoji"
         font-size="20px"
         fill="#1e1e1e"
         text-anchor="start"
         style="font-style:normal;font-variant:normal;font-weight:normal;font-stretch:normal;font-size:21.4373px;font-family:Dion;-inkscape-font-specification:'Dion, Normal';font-variant-ligatures:normal;font-variant-caps:normal;font-variant-numeric:normal;font-variant-east-asian:normal;white-space:pre"
         direction="ltr"
         dominant-baseline="alphabetic"
         id="text49">Push-ups</text>
    </g>
    <g
       stroke-linecap="round"
       transform="translate(185.40517,170.13094)"
       id="g51">
      <path
         d="m 5.59,0 c 11.3,-0.1 22.78,-1.38 31.33,0 M 5.59,0 C 17.3,0.85 29.45,-0.41 36.92,0 m 0,0 c 4.15,0.3 6.7,2.16 5.58,5.59 M 36.92,0 c 2.34,-2.03 7.57,1.94 5.58,5.59 m 0,0 c -0.89,1.98 0.18,6.23 0,11.17 m 0,-11.17 c -0.47,2.7 -0.53,6.47 0,11.17 m 0,0 c 0.94,4.46 -1.2,7.25 -5.58,5.58 m 5.58,-5.58 c 0.11,4.12 -0.8,3.4 -5.58,5.58 m 0,0 c -9.02,-1.84 -21.31,1.85 -31.33,0 m 31.33,0 c -10.01,-0.2 -20.06,0.09 -31.33,0 m 0,0 C 0.28,20.59 1.3,22.35 0,16.76 m 5.59,5.58 C 3.77,24.17 1.05,21.41 0,16.76 m 0,0 C 0.63,13.63 0.6,8.47 0,5.59 M 0,16.76 C 0.46,12.84 -0.48,9.03 0,5.59 m 0,0 C -0.34,1.31 2.44,1.3 5.59,0 M 0,5.59 C -0.87,1.53 3.13,0.94 5.59,0"
         stroke="#1e1e1e"
         stroke-width="1"
         fill="none"
         id="path50" />
    </g>
    <g
       transform="translate(228.40517,178.13094)"
       id="g52">
      <text
         x="0"
         y="17.52"
         font-family="Virgil, Segoe UI Emoji"
         font-size="20px"
         fill="#1e1e1e"
         text-anchor="start"
         style="font-style:normal;font-variant:normal;font-weight:normal;font-stretch:normal;font-size:21.4373px;font-family:Dion;-inkscape-font-specification:'Dion, Normal';font-variant-ligatures:normal;font-variant-caps:normal;font-variant-numeric:normal;font-variant-east-asian:normal;white-space:pre"
         direction="ltr"
         dominant-baseline="alphabetic"
         id="text51">/40</text>
    </g>
    <g
       transform="translate(65.405172,209.96849)"
       id="g53">
      <text
         x="0"
         y="17.52"
         font-family="Virgil, Segoe UI Emoji"
         font-size="20px"
         fill="#1e1e1e"
         text-anchor="start"
         style="font-style:normal;font-variant:normal;font-weight:normal;font-stretch:normal;font-size:21.4373px;font-family:Dion;-inkscape-font-specification:'Dion, Normal';font-variant-ligatures:normal;font-variant-caps:normal;font-variant-numeric:normal;font-variant-east-asian:normal;white-space:pre"
         direction="ltr"
         dominant-baseline="alphabetic"
         id="text52">Situps</text>
    </g>
    <g
       transform="translate(228.40517,217.96849)"
       id="g54">
      <text
         x="0"
         y="17.52"
         font-family="Virgil, Segoe UI Emoji"
         font-size="20px"
         fill="#1e1e1e"
         text-anchor="start"
         style="font-style:normal;font-variant:normal;font-weight:normal;font-stretch:normal;font-size:21.4373px;font-family:Dion;-inkscape-font-specification:'Dion, Normal';font-variant-ligatures:normal;font-variant-caps:normal;font-variant-numeric:normal;font-variant-east-asian:normal;white-space:pre"
         direction="ltr"
         dominant-baseline="alphabetic"
         id="text53">/100</text>
    </g>
    <g
       stroke-linecap="round"
       transform="translate(185.40517,209.96849)"
       id="g55">
      <path
         d="m 5.59,0 c 6.59,-0.92 12.07,0.91 31.33,0 M 5.59,0 c 10.96,0.53 22.34,0.9 31.33,0 m 0,0 c 3.11,-1.73 6.6,-0.04 5.58,5.59 M 36.92,0 c 4.24,0.1 3.95,1.48 5.58,5.59 m 0,0 c 1.03,2.58 -0.77,4.23 0,11.17 m 0,-11.17 c 0.05,3.2 -0.16,6.28 0,11.17 m 0,0 c -0.68,2.01 -3.48,5.33 -5.58,5.58 m 5.58,-5.58 c 0.79,5.05 -4,7.55 -5.58,5.58 m 0,0 C 28.3,21.63 19.3,20.7 5.59,22.34 m 31.33,0 c -8.99,-0.78 -19.97,0.1 -31.33,0 m 0,0 C 1.15,20.6 -1.02,22.08 0,16.76 m 5.59,5.58 C 2.17,23.91 0.45,19.53 0,16.76 m 0,0 C -0.84,13.85 0.68,12.96 0,5.59 M 0,16.76 C -0.42,14.36 0.26,12.01 0,5.59 m 0,0 C -1.05,1.01 3.7,-0.23 5.59,0 M 0,5.59 C 1.2,1.31 1.25,-1 5.59,0"
         stroke="#1e1e1e"
         stroke-width="1"
         fill="none"
         id="path54" />
    </g>
    <g
       transform="translate(65.405172,249.80604)"
       id="g56">
      <text
         x="0"
         y="17.52"
         font-family="Virgil, Segoe UI Emoji"
         font-size="20px"
         fill="#1e1e1e"
         text-anchor="start"
         style="font-style:normal;font-variant:normal;font-weight:normal;font-stretch:normal;font-size:21.4373px;font-family:Dion;-inkscape-font-specification:'Dion, Normal';font-variant-ligatures:normal;font-variant-caps:normal;font-variant-numeric:normal;font-variant-east-asian:normal;white-space:pre"
         direction="ltr"
         dominant-baseline="alphabetic"
         id="text55">Crunches</text>
    </g>
    <g
       transform="translate(228.40517,257.80604)"
       id="g57">
      <text
         x="0"
         y="17.52"
         font-family="Virgil, Segoe UI Emoji"
         font-size="20px"
         fill="#1e1e1e"
         text-anchor="start"
         style="font-style:normal;font-variant:normal;font-weight:normal;font-stretch:normal;font-size:21.4373px;font-family:Dion;-inkscape-font-specification:'Dion, Normal';font-variant-ligatures:normal;font-variant-caps:normal;font-variant-numeric:normal;font-variant-east-asian:normal;white-space:pre"
         direction="ltr"
         dominant-baseline="alphabetic"
         id="text56">/60</text>
    </g>
    <g
       stroke-linecap="round"
       transform="translate(185.40517,249.80604)"
       id="g58">
      <path
         d="M 5.59,0 C 12.14,-1.16 20.5,0.61 36.92,0 M 5.59,0 c 11.25,0.6 23.29,0.32 31.33,0 m 0,0 c 3.81,-1.42 5.25,-0.01 5.58,5.59 M 36.92,0 c 2.29,0.55 7.83,2.43 5.58,5.59 m 0,0 c -0.47,1.74 0.15,5.42 0,11.17 m 0,-11.17 c -0.47,2.65 -0.07,6.39 0,11.17 m 0,0 c 1.16,1.86 -0.15,5.01 -5.58,5.58 m 5.58,-5.58 c -1,4.72 -1.98,4.61 -5.58,5.58 m 0,0 c -10.43,0.11 -15.52,-1.56 -31.33,0 m 31.33,0 c -8.47,-0.62 -14.41,0.02 -31.33,0 m 0,0 C 3.23,22.73 -0.83,18.82 0,16.76 m 5.59,5.58 C 3.3,21.93 -1.58,19.5 0,16.76 m 0,0 C 0.94,13.2 -0.73,8.9 0,5.59 M 0,16.76 C -0.32,13.19 -0.14,8.89 0,5.59 m 0,0 C -0.48,1.33 1,0.69 5.59,0 M 0,5.59 C 0.02,1.59 0.08,0.01 5.59,0"
         stroke="#1e1e1e"
         stroke-width="1"
         fill="none"
         id="path57" />
    </g>
    <g
       transform="translate(65.405172,289.64359)"
       id="g59">
      <text
         x="0"
         y="17.52"
         font-family="Virgil, Segoe UI Emoji"
         font-size="20px"
         fill="#1e1e1e"
         text-anchor="start"
         style="font-style:normal;font-variant:normal;font-weight:normal;font-stretch:normal;font-size:20px;font-family:Dion;-inkscape-font-specification:'Dion, Normal';font-variant-ligatures:normal;font-variant-caps:normal;font-variant-numeric:normal;font-variant-east-asian:normal;white-space:pre"
         direction="ltr"
         dominant-baseline="alphabetic"
         id="text58">Lifts</text>
    </g>
    <g
       transform="translate(228.40517,297.64359)"
       id="g60">
      <text
         x="0"
         y="17.52"
         font-family="Virgil, Segoe UI Emoji"
         font-size="20px"
         fill="#1e1e1e"
         text-anchor="start"
         style="font-style:normal;font-variant:normal;font-weight:normal;font-stretch:normal;font-size:20px;font-family:Dion;-inkscape-font-specification:'Dion, Normal';font-variant-ligatures:normal;font-variant-caps:normal;font-variant-numeric:normal;font-variant-east-asian:normal;white-space:pre"
         direction="ltr"
         dominant-baseline="alphabetic"
         id="text59">/80</text>
    </g>
    <g
       stroke-linecap="round"
       transform="translate(185.40517,289.64359)"
       id="g61">
      <path
         d="M 5.59,0 C 17.17,-0.89 24.07,0.74 36.92,0 M 5.59,0 c 5.71,-0.18 11.9,-0.63 31.33,0 m 0,0 c 4.2,1.96 6.07,0.6 5.58,5.59 M 36.92,0 c 2.94,-0.43 4.68,0.01 5.58,5.59 m 0,0 c 0.02,3.15 -0.94,6.16 0,11.17 m 0,-11.17 c -0.48,3.68 -0.12,6.17 0,11.17 m 0,0 c 0.87,3.61 -2.7,4.98 -5.58,5.58 m 5.58,-5.58 c -2.04,3.94 -4.12,5.68 -5.58,5.58 m 0,0 c -11.45,-0.89 -24.99,-1.2 -31.33,0 m 31.33,0 c -11.71,-0.2 -24.64,0.84 -31.33,0 m 0,0 C 1.5,20.97 -0.85,21.82 0,16.76 m 5.59,5.58 C 4.03,20.73 2.14,21.6 0,16.76 m 0,0 C 0.75,13.45 -0.51,12.34 0,5.59 M 0,16.76 C -0.21,13.29 0.13,10.31 0,5.59 m 0,0 C -0.24,0.32 1.87,1.79 5.59,0 M 0,5.59 C -0.13,0.25 3.85,-1.25 5.59,0"
         stroke="#1e1e1e"
         stroke-width="1"
         fill="none"
         id="path60" />
    </g>
    <g
       transform="translate(65.405172,330.13094)"
       id="g62">
      <text
         x="0"
         y="17.52"
         font-family="Virgil, Segoe UI Emoji"
         font-size="20px"
         fill="#1e1e1e"
         text-anchor="start"
         style="font-style:normal;font-variant:normal;font-weight:normal;font-stretch:normal;font-size:20px;font-family:Dion;-inkscape-font-specification:'Dion, Normal';font-variant-ligatures:normal;font-variant-caps:normal;font-variant-numeric:normal;font-variant-east-asian:normal;white-space:pre"
         direction="ltr"
         dominant-baseline="alphabetic"
         id="text61">Planks [s]</text>
    </g>
    <g
       transform="translate(228.40517,338.13094)"
       id="g63">
      <text
         x="0"
         y="17.52"
         font-family="Virgil, Segoe UI Emoji"
         font-size="20px"
         fill="#1e1e1e"
         text-anchor="start"
         style="font-style:normal;font-variant:normal;font-weight:normal;font-stretch:normal;font-size:20px;font-family:Dion;-inkscape-font-specification:'Dion, Normal';font-variant-ligatures:normal;font-variant-caps:normal;font-variant-numeric:normal;font-variant-east-asian:normal;white-space:pre"
         direction="ltr"
         dominant-baseline="alphabetic"
         id="text62">/60</text>
    </g>
    <g
       stroke-linecap="round"
       transform="translate(185.40517,329.48114)"
       id="g64">
      <path
         d="m 5.59,0 c 7.14,0.39 11.96,-0.03 31.33,0 M 5.59,0 c 7.44,0.17 12.3,-0.41 31.33,0 m 0,0 c 3.35,-0.79 3.98,2.19 5.58,5.59 M 36.92,0 c 4,-0.51 5.58,1.08 5.58,5.59 m 0,0 c 0.3,3.04 -1.13,5.75 0,11.17 m 0,-11.17 c -0.08,2.79 -0.21,5.57 0,11.17 m 0,0 c 0.19,1.75 -1.78,7 -5.58,5.58 m 5.58,-5.58 c -1.83,2.4 -1.66,4.77 -5.58,5.58 m 0,0 c -6.41,1.62 -12.96,-0.58 -31.33,0 m 31.33,0 c -7.5,-0.48 -12.95,0.89 -31.33,0 m 0,0 C 0.46,24.21 0.98,19.35 0,16.76 m 5.59,5.58 C 2.57,23.84 1.61,19.27 0,16.76 m 0,0 C 0.48,13.62 -0.4,10.53 0,5.59 M 0,16.76 C -0.43,13.02 0.5,9.25 0,5.59 m 0,0 C -1.4,3.59 0.77,-1.39 5.59,0 M 0,5.59 C 0.41,0.88 2.28,-1.96 5.59,0"
         stroke="#1e1e1e"
         stroke-width="1"
         fill="none"
         id="path63" />
    </g>
  </g>
</svg>
